HIERARCHY
ROOT Hips
{
	OFFSET -0.001795 -0.223333 0.028219
	CHANNELS 6 Xposition Yposition Zposition Zrotation Yrotation Xrotation 
	JOINT LeftUpLeg
	{
		OFFSET 0.069520 -0.091406 -0.006815
		CHANNELS 3 Zrotation Yrotation Xrotation
		JOINT LeftLeg
		{
			OFFSET 0.034277 -0.375199 -0.004496
			CHANNELS 3 Zrotation Yrotation Xrotation
			JOINT LeftFoot
			{
				OFFSET -0.013596 -0.397961 -0.043693
				CHANNELS 3 Zrotation Yrotation Xrotation
				JOINT LeftToe
				{
					OFFSET 0.026358 -0.055791 0.119288
					CHANNELS 3 Zrotation Yrotation Xrotation
					End Site
					{
						OFFSET 0.000000 0.000000 0.000000
					}
				}
			}
		}
	}
	JOINT RightUpLeg
	{
		OFFSET -0.067670 -0.090522 -0.004320
		CHANNELS 3 Zrotation Yrotation Xrotation
		JOINT RightLeg
		{
			OFFSET -0.038290 -0.382569 -0.008850
			CHANNELS 3 Zrotation Yrotation Xrotation
			JOINT RightFoot
			{
				OFFSET 0.015774 -0.398415 -0.042312
				CHANNELS 3 Zrotation Yrotation Xrotation
				JOINT RightToe
				{
					OFFSET -0.025372 -0.048144 0.123348
					CHANNELS 3 Zrotation Yrotation Xrotation
					End Site
					{
						OFFSET 0.000000 0.000000 0.000000
					}
				}
			}
		}
	}
	JOINT Spine
	{
		OFFSET -0.002533 0.108963 -0.026696
		CHANNELS 3 Zrotation Yrotation Xrotation
		JOINT Spine1
		{
			OFFSET 0.005487 0.135180 0.001092
			CHANNELS 3 Zrotation Yrotation Xrotation
			JOINT Spine2
			{
				OFFSET 0.001457 0.052922 0.025425
				CHANNELS 3 Zrotation Yrotation Xrotation
				JOINT Neck
				{
					OFFSET -0.002778 0.213870 -0.042857
					CHANNELS 3 Zrotation Yrotation Xrotation
					JOINT Head
					{
						OFFSET 0.005152 0.064970 0.051349
						CHANNELS 3 Zrotation Yrotation Xrotation
						End Site
						{
							OFFSET 0.000000 0.000000 0.000000
						}
					}
				}
				JOINT LeftShoulder
				{
					OFFSET 0.078845 0.121749 -0.034090
					CHANNELS 3 Zrotation Yrotation Xrotation
					JOINT LeftArm
					{
						OFFSET 0.090977 0.030469 -0.008868
						CHANNELS 3 Zrotation Yrotation Xrotation
						JOINT LeftForeArm
						{
							OFFSET 0.259612 -0.012772 -0.027456
							CHANNELS 3 Zrotation Yrotation Xrotation
							JOINT LeftHand
							{
								OFFSET 0.249234 0.008986 -0.001171
								CHANNELS 3 Zrotation Yrotation Xrotation
								End Site
								{
									OFFSET 0.000000 0.000000 0.000000
								}
							}
						}
					}
				}
				JOINT RightShoulder
				{
					OFFSET -0.081759 0.118833 -0.038615
					CHANNELS 3 Zrotation Yrotation Xrotation
					JOINT RightArm
					{
						OFFSET -0.096012 0.032551 -0.009143
						CHANNELS 3 Zrotation Yrotation Xrotation
						JOINT RightForeArm
						{
							OFFSET -0.253742 -0.013329 -0.021401
							CHANNELS 3 Zrotation Yrotation Xrotation
							JOINT RightHand
							{
								OFFSET -0.255298 0.007772 -0.005559
								CHANNELS 3 Zrotation Yrotation Xrotation
								End Site
								{
									OFFSET 0.000000 0.000000 0.000000
								}
							}
						}
					}
				}
			}
		}
	}
}
MOTION
Frames: 14
Frame Time: 0.050000
-0.630131 0.910218 0.712649 -0.646427 39.563178 1.762127 10.611976 -1.179262 -6.774628 19.221122 -5.031433 10.751133 -32.108751 -45.747277 18.552039 0.000000 0.000000 0.000000 -9.309803 -1.311962 -13.682940 -13.622481 2.594450 19.275601 12.184521 20.744162 10.800699 0.000000 0.000000 0.000000 6.225925 -0.181232 -0.382536 -4.182378 -1.937725 17.819872 -3.017263 17.907593 -8.208191 14.567918 -2.505346 -22.404242 0.000000 0.000000 0.000000 -30.310421 -18.727972 -6.716558 -28.532663 25.711913 -4.943974 -97.202369 -88.642142 93.245050 0.000000 0.000000 0.000000 42.820146 17.705549 30.830585 8.575033 16.147715 -2.369238 3.542379 66.742958 3.115386 0.000000 0.000000 0.000000 
-0.660285 0.913967 0.736842 -0.028868 44.637473 2.461706 9.954870 -1.358864 -10.603296 14.782907 -5.434446 16.192936 -21.662044 -35.389273 10.610132 0.000000 0.000000 0.000000 -8.140603 -1.154628 -12.025948 -11.626519 1.771563 19.345515 9.224740 17.271783 6.622702 0.000000 0.000000 0.000000 7.317571 -0.397832 0.842285 -3.745650 -2.686995 17.478716 -2.723104 19.457367 -8.932026 13.848406 -1.704545 -22.611927 0.000000 0.000000 0.000000 -30.470457 -19.625471 -7.795597 -27.556187 26.258855 -4.480706 -37.600856 -83.496335 31.133324 0.000000 0.000000 0.000000 40.607928 16.930183 30.592019 8.808220 15.882435 -2.376952 2.554196 63.356192 2.287087 0.000000 0.000000 0.000000 
-0.688450 0.916587 0.756327 1.089507 50.653003 3.871639 8.459055 -1.658792 -14.015535 4.571533 -4.218687 21.562176 -8.237858 -21.551968 -0.954940 0.000000 0.000000 0.000000 -7.174463 -1.154039 -11.110176 -9.838564 0.855968 19.616645 6.467956 12.707790 3.446011 0.000000 0.000000 0.000000 8.632561 -0.700957 1.926394 -2.246771 -4.019555 16.642406 -3.533661 20.248867 -9.105356 15.142817 -2.001137 -22.813419 0.000000 0.000000 0.000000 -32.100115 -21.898599 -8.904799 -25.978691 26.947126 -3.628299 -31.081563 -79.231745 23.624576 0.000000 0.000000 0.000000 38.998601 17.588329 31.811104 8.817869 15.099247 -2.296008 -0.815360 59.834148 -0.185597 0.000000 0.000000 0.000000 
-0.715189 0.917654 0.770787 2.308536 55.525553 4.419351 6.613507 -1.925838 -16.029984 -9.831309 -2.868887 27.196457 0.782614 -1.830599 -2.172420 0.000000 0.000000 0.000000 -7.040852 -1.351413 -10.598843 -7.346972 -0.467189 20.934459 4.911037 9.487810 1.341627 0.000000 0.000000 0.000000 9.973646 -1.218927 4.070590 -1.648649 -5.164206 17.304661 -3.974262 21.240843 -10.202688 16.055506 -1.925264 -23.770157 0.000000 0.000000 0.000000 -32.441562 -24.173679 -9.213917 -27.309424 27.413975 -3.502738 -22.569214 -77.627563 15.065767 0.000000 0.000000 0.000000 36.769136 18.637113 32.372848 8.672117 15.495248 -2.176434 -3.510614 53.443154 -1.599838 0.000000 0.000000 0.000000 
-0.740660 0.916959 0.780917 5.389976 59.593383 7.120147 4.726663 -2.077753 -16.749538 -19.856614 -2.411016 29.080433 1.289335 5.257305 4.056799 0.000000 0.000000 0.000000 -6.973612 -1.644225 -11.358756 -7.073350 -1.258444 22.482871 3.741226 6.644961 -0.732733 0.000000 0.000000 0.000000 10.746981 -1.674326 5.576427 -0.526992 -5.977966 16.456633 -4.491804 21.643349 -9.880691 16.491627 -1.563265 -24.911516 0.000000 0.000000 0.000000 -31.523957 -25.071010 -9.669315 -29.323609 26.265411 -3.405323 -18.019163 -76.928496 9.766970 0.000000 0.000000 0.000000 36.239314 19.539959 33.731073 6.728122 15.884794 -2.078087 -7.740772 45.226179 -3.401493 0.000000 0.000000 0.000000 
-0.765258 0.914282 0.787764 8.316295 61.676287 10.311058 2.880902 -2.340952 -17.845152 -24.265766 -2.531476 29.648776 -1.119553 6.127767 10.247440 0.000000 0.000000 0.000000 -7.200164 -2.146123 -13.690859 -6.917966 -2.043078 24.530592 3.502549 5.743870 -2.707356 0.000000 0.000000 0.000000 11.726099 -2.288966 7.130042 -0.489667 -6.295395 16.580775 -4.210010 23.222688 -10.252893 16.016935 -1.426924 -23.764427 0.000000 0.000000 0.000000 -31.985844 -27.083230 -10.274642 -31.175243 27.325075 -3.410781 -9.806003 -76.751090 1.785895 0.000000 0.000000 0.000000 36.003959 20.671181 35.490807 4.911091 15.547291 -1.960038 -10.206845 38.084562 -3.947817 0.000000 0.000000 0.000000 
-0.788553 0.908950 0.793064 13.097731 63.544727 15.127789 0.533533 -2.670775 -18.764266 -21.307547 -3.014008 29.046853 -0.946236 4.035600 6.844028 0.000000 0.000000 0.000000 -8.516478 -3.162050 -15.720382 -6.521084 -2.882738 26.257995 3.540944 5.200830 -5.790015 0.000000 0.000000 0.000000 12.673204 -2.933696 8.460613 -0.157627 -7.341284 17.727183 -5.672328 24.694395 -12.205462 15.874639 -1.278339 -23.684505 0.000000 0.000000 0.000000 -32.485754 -27.589001 -11.145632 -30.865097 27.895627 -3.107526 -4.693441 -76.150669 -2.233814 0.000000 0.000000 0.000000 36.645955 20.992485 37.031141 1.979646 16.134387 -1.918728 -12.214242 29.992316 -3.690708 0.000000 0.000000 0.000000 
-0.809690 0.903040 0.798241 16.932786 65.303789 18.985478 -0.633404 -3.066301 -19.823590 -19.553324 -3.396099 28.856170 -0.591088 2.316707 4.215234 0.000000 0.000000 0.000000 -9.066623 -3.959175 -17.396420 -6.385389 -3.647234 27.821595 3.576747 4.585320 -8.713619 0.000000 0.000000 0.000000 13.262496 -3.534488 9.729868 -0.572179 -7.925186 18.860308 -5.780385 25.590743 -13.950789 15.482884 -1.639233 -21.979272 0.000000 0.000000 0.000000 -32.886075 -28.816249 -10.947111 -30.997112 27.671318 -2.777075 -0.342720 -74.279480 -5.621603 0.000000 0.000000 0.000000 37.557847 20.936917 37.836402 -0.582948 16.332078 -1.868813 -11.764903 25.218783 -3.028342 0.000000 0.000000 0.000000 
-0.827909 0.896537 0.803947 17.698473 65.451974 19.546733 -0.649126 -3.357646 -20.764768 -18.663025 -3.568636 29.422588 0.668710 2.291665 1.917023 0.000000 0.000000 0.000000 -8.951986 -4.101662 -18.031967 -5.572179 -4.050196 27.957806 3.912093 4.698395 -12.094624 0.000000 0.000000 0.000000 13.934711 -4.164222 11.050757 -0.965722 -7.454586 18.524256 -5.327288 25.881595 -13.466353 15.746869 -1.986988 -21.279491 0.000000 0.000000 0.000000 -33.345168 -29.479712 -10.592937 -30.287235 26.795286 -2.367545 4.633748 -72.582358 -8.685974 0.000000 0.000000 0.000000 37.456448 21.240894 37.941539 -1.417460 17.957150 -2.055150 -12.096463 21.514127 -2.565311 0.000000 0.000000 0.000000 
-0.843207 0.894269 0.810014 18.511140 66.058693 19.863215 -0.910553 -3.342275 -20.643053 -16.799614 -3.738554 29.136269 1.038362 1.225082 0.365401 0.000000 0.000000 0.000000 -8.565578 -3.918874 -17.660807 -4.855467 -4.206388 27.209336 3.872347 3.858589 -13.816827 0.000000 0.000000 0.000000 14.134573 -4.355080 11.438200 -1.553395 -7.695288 19.580094 -4.888235 25.155912 -14.534592 14.846850 -2.428313 -19.144689 0.000000 0.000000 0.000000 -32.994028 -29.504502 -9.399980 -30.439121 25.259456 -2.244234 8.839749 -70.347090 -11.199591 0.000000 0.000000 0.000000 38.600692 21.205891 37.867027 -1.803404 18.238823 -2.087108 -12.859522 21.029201 -2.624114 0.000000 0.000000 0.000000 
-0.855808 0.893667 0.815338 17.756630 65.547661 18.869687 -0.906330 -3.053654 -19.745613 -14.693681 -3.531356 27.469464 1.642342 0.413929 -1.258530 0.000000 0.000000 0.000000 -7.804629 -3.480426 -17.442911 -4.325820 -3.957706 26.014027 3.903293 3.671401 -14.587929 0.000000 0.000000 0.000000 14.359070 -4.710714 12.354598 -1.388631 -6.748707 17.842795 -4.306066 23.972873 -12.872789 14.495200 -2.668299 -17.907991 0.000000 0.000000 0.000000 -33.303144 -29.252855 -9.036734 -28.500862 23.140212 -1.610571 9.214012 -68.616651 -10.162938 0.000000 0.000000 0.000000 38.620705 20.614530 37.045957 -0.854722 19.430140 -2.262963 -14.874710 23.177222 -3.293909 0.000000 0.000000 0.000000 
-0.865865 0.896900 0.819626 17.112135 64.871045 18.025058 -1.110688 -2.739377 -18.655342 -12.516224 -3.228847 25.440736 1.430319 -0.252980 -1.375396 0.000000 0.000000 0.000000 -6.768789 -2.836492 -16.799906 -4.466272 -3.157585 23.963677 3.673405 3.027505 -13.808160 0.000000 0.000000 0.000000 14.681756 -4.641001 11.917452 -1.678280 -6.146368 17.262789 -3.481824 22.096344 -11.838575 12.898354 -2.001982 -17.483541 0.000000 0.000000 0.000000 -33.015383 -29.175404 -7.683481 -28.142108 20.785698 -1.374740 16.102193 -68.911884 -14.706785 0.000000 0.000000 0.000000 38.456932 20.254114 35.658755 1.173858 19.325836 -2.207594 -17.867996 28.378268 -4.735405 0.000000 0.000000 0.000000 
-0.873902 0.901731 0.822794 15.541043 64.181466 16.311359 -1.110587 -2.263631 -16.908345 -10.044181 -2.776839 22.510446 1.028061 -1.170295 -1.344462 0.000000 0.000000 0.000000 -5.823183 -2.177602 -15.494368 -3.832721 -2.467393 20.936291 3.360649 2.373610 -12.175964 0.000000 0.000000 0.000000 14.699808 -4.653050 12.076686 -1.474747 -5.404790 15.670542 -3.341149 20.491756 -10.334361 12.783188 -1.928115 -17.484922 0.000000 0.000000 0.000000 -33.338670 -29.236714 -7.154231 -26.377178 18.499258 -0.802170 24.054446 -71.173824 -20.463594 0.000000 0.000000 0.000000 38.759784 19.157854 34.610015 3.397738 19.863598 -2.313530 -22.590420 35.107108 -7.352177 0.000000 0.000000 0.000000 
-0.880266 0.908082 0.825444 14.138841 63.750169 14.640123 -1.306339 -1.809606 -15.028391 -7.452384 -2.351693 19.638364 0.088278 -2.084062 -0.526850 0.000000 0.000000 0.000000 -5.020456 -1.550348 -13.490119 -3.082213 -1.736725 17.153234 2.836297 1.467944 -9.747865 0.000000 0.000000 0.000000 14.550407 -4.219343 11.043967 -1.459457 -4.830911 14.498169 -2.651807 18.111406 -8.741885 11.518205 -1.341895 -17.278951 0.000000 0.000000 0.000000 -33.253334 -29.169407 -6.036729 -24.798107 15.516489 -0.343854 40.866781 -73.878960 -34.063890 0.000000 0.000000 0.000000 38.316144 18.169132 32.692627 7.536734 19.077938 -2.272570 -26.627666 44.928560 -10.858190 0.000000 0.000000 0.000000 
